
      <svg width="100%" height="100%" xmlns="http://www.w3.org/2000/svg" xmlns:xlink="http://www.w3.org/1999/xlink">
        <rect x="0" y="0" width="20" height="20" fill="#8a893d" /><rect x="20" y="0" width="20" height="20" fill="#6c5fd5" /><rect x="40" y="0" width="20" height="20" fill="#8a893d" /><rect x="60" y="0" width="20" height="20" fill="#6c5fd5" /><rect x="80" y="0" width="20" height="20" fill="#8a893d" /><rect x="0" y="20" width="20" height="20" fill="#6c5fd5" /><rect x="20" y="20" width="20" height="20" fill="#6c5fd5" /><rect x="60" y="20" width="20" height="20" fill="#6c5fd5" /><rect x="80" y="20" width="20" height="20" fill="#6c5fd5" /><rect x="0" y="40" width="20" height="20" fill="#6c5fd5" /><rect x="80" y="40" width="20" height="20" fill="#6c5fd5" /><rect x="0" y="60" width="20" height="20" fill="#d0be51" /><rect x="20" y="60" width="20" height="20" fill="#d0be51" /><rect x="40" y="60" width="20" height="20" fill="#8a893d" /><rect x="60" y="60" width="20" height="20" fill="#d0be51" /><rect x="80" y="60" width="20" height="20" fill="#d0be51" /><rect x="20" y="80" width="20" height="20" fill="#8a893d" /><rect x="60" y="80" width="20" height="20" fill="#8a893d" />
      </svg>
    