
      <svg width="100%" height="100%" xmlns="http://www.w3.org/2000/svg" xmlns:xlink="http://www.w3.org/1999/xlink">
        <rect x="0" y="0" width="20" height="20" fill="#3534b1" /><rect x="40" y="0" width="20" height="20" fill="#89bf93" /><rect x="80" y="0" width="20" height="20" fill="#3534b1" /><rect x="0" y="20" width="20" height="20" fill="#3534b1" /><rect x="20" y="20" width="20" height="20" fill="#3534b1" /><rect x="60" y="20" width="20" height="20" fill="#3534b1" /><rect x="80" y="20" width="20" height="20" fill="#3534b1" /><rect x="20" y="40" width="20" height="20" fill="#41a598" /><rect x="40" y="40" width="20" height="20" fill="#41a598" /><rect x="60" y="40" width="20" height="20" fill="#41a598" /><rect x="0" y="60" width="20" height="20" fill="#41a598" /><rect x="80" y="60" width="20" height="20" fill="#41a598" /><rect x="0" y="80" width="20" height="20" fill="#89bf93" /><rect x="20" y="80" width="20" height="20" fill="#3534b1" /><rect x="60" y="80" width="20" height="20" fill="#3534b1" /><rect x="80" y="80" width="20" height="20" fill="#89bf93" />
      </svg>
    